<svg id="Layer_1" data-name="Layer 1" xmlns="http://www.w3.org/2000/svg" viewBox="0 0 143.18 18.95"><defs><style>.cls-1{fill:#fff;stroke:#231f20;stroke-miterlimit:10;}.cls-2{fill:#231f20;}</style></defs><title>coffee-beans-icon</title><path class="cls-1" d="M-11.94,16.93" transform="translate(-5.54 -3.29)"/><line class="cls-1" y1="10.35" x2="50" y2="10.35"/><path class="cls-2" d="M86.76,14.76A2.07,2.07,0,0,1,87,16.4,5,5,0,0,1,86.4,18a8.64,8.64,0,0,1-2.25,2.53A9.33,9.33,0,0,1,81.08,22a5,5,0,0,1-1.77.17,2.35,2.35,0,0,1-1.72-.87,2.43,2.43,0,0,1-.36-1.92,5.1,5.1,0,0,1,.68-1.7,8.38,8.38,0,0,1,2.44-2.52,7.85,7.85,0,0,1,3.22-1.28,5,5,0,0,1,1.73,0A2.19,2.19,0,0,1,86.76,14.76Zm-.08.06a1.81,1.81,0,0,0-1.41-.65,4.4,4.4,0,0,0-1.57.27A10.38,10.38,0,0,0,80.93,16a9.69,9.69,0,0,0-2.19,2.24c-.56.82-1,1.91-.5,2.63s1.69.76,2.69.53a8.79,8.79,0,0,0,2.93-1.32,9.27,9.27,0,0,0,2.36-2.23,4.48,4.48,0,0,0,.7-1.48A1.94,1.94,0,0,0,86.68,14.82Z" transform="translate(-5.54 -3.29)"/><path class="cls-2" d="M76.07,17.51a2.37,2.37,0,0,1-1.58.6,5.36,5.36,0,0,1-1.73-.24A6.46,6.46,0,0,1,69.87,16a10.11,10.11,0,0,1-1.75-3,5.87,5.87,0,0,1-.42-1.66,2.29,2.29,0,0,1,.48-1.74,2.27,2.27,0,0,1,1.75-.71,4.87,4.87,0,0,1,1.78.36,8.52,8.52,0,0,1,2.91,2,7.29,7.29,0,0,1,1.82,3,5.07,5.07,0,0,1,.24,1.73A2.35,2.35,0,0,1,76.07,17.51ZM76,17.44a1.74,1.74,0,0,0,.4-1.5,4.21,4.21,0,0,0-.56-1.49,12.73,12.73,0,0,0-2-2.47,9.65,9.65,0,0,0-2.53-1.84c-.91-.41-2-.71-2.77-.14A1.74,1.74,0,0,0,68,11.34a3.93,3.93,0,0,0,.38,1.56,7.92,7.92,0,0,0,2,2.49A16.89,16.89,0,0,0,73,17.29a4.63,4.63,0,0,0,1.49.56A1.77,1.77,0,0,0,76,17.44Z" transform="translate(-5.54 -3.29)"/><path class="cls-2" d="M81.93,3.42a3.56,3.56,0,0,1,1.86,2.84,9.53,9.53,0,0,1-.67,3.44,9.55,9.55,0,0,1-1.84,3,4.94,4.94,0,0,1-1.46,1.12,2.27,2.27,0,0,1-3.37-1.31,5.33,5.33,0,0,1-.32-1.82,9.33,9.33,0,0,1,.68-3.44,9.45,9.45,0,0,1,1.83-3A3.61,3.61,0,0,1,81.93,3.42Zm0,0a1.57,1.57,0,0,0-1.53.33,5.8,5.8,0,0,0-1,1.19A8.33,8.33,0,0,0,77.74,7.6a8.44,8.44,0,0,0-.61,3.07c0,1,.32,2.11,1,2.39s1.71-.32,2.38-1.05a8.37,8.37,0,0,0,1.63-2.67,8.24,8.24,0,0,0,.61-3.07,6.33,6.33,0,0,0,0-1.57A1.56,1.56,0,0,0,81.93,3.42Z" transform="translate(-5.54 -3.29)"/><line class="cls-1" x1="93.18" y1="10.35" x2="143.18" y2="10.35"/><path class="cls-2" d="M76,17.47a5.35,5.35,0,0,0-1.78-2.09A18.2,18.2,0,0,0,71.87,14a21.75,21.75,0,0,1-2.49-1.51,3.74,3.74,0,0,1-1.07-1.13,1.36,1.36,0,0,1,.06-1.5c-.22,1,.65,1.55,1.43,2l2.55,1.28a10.08,10.08,0,0,1,2.42,1.72A4,4,0,0,1,76,17.47Z" transform="translate(-5.54 -3.29)"/><path class="cls-2" d="M81.93,3.42a1.94,1.94,0,0,1,.29,1.38,4,4,0,0,1-.44,1.35,15.56,15.56,0,0,1-1.49,2.29c-.55.71-1.08,1.39-1.53,2.11a3.55,3.55,0,0,0-.68,2.4,2.91,2.91,0,0,1,0-2.75,11.16,11.16,0,0,1,1.43-2.36c.55-.71,1.11-1.39,1.62-2.08A3.31,3.31,0,0,0,81.93,3.42Z" transform="translate(-5.54 -3.29)"/><path class="cls-2" d="M86.73,14.79a1.16,1.16,0,0,1,.14.72,1.71,1.71,0,0,1-.35.7,4.4,4.4,0,0,1-1.17.91,19.15,19.15,0,0,1-2.55,1.14c-.86.32-1.7.64-2.51,1a4.22,4.22,0,0,0-2,1.65,3.28,3.28,0,0,1,1.63-2.32,12.52,12.52,0,0,1,2.54-1.26L85,16.42a5.93,5.93,0,0,0,1.16-.56A1.1,1.1,0,0,0,86.73,14.79Z" transform="translate(-5.54 -3.29)"/></svg>